<?xml version="1.0" encoding="utf-8"?>
<svg viewBox="0 0 500 500" xmlns="http://www.w3.org/2000/svg" xmlns:bx="https://boxy-svg.com">
  <defs>
    <bx:grid x="0" y="1.051" width="62.283" height="57.831"/>
  </defs>
  <path d="M 347.596 6.167 C 340.144 14.556 340.144 28.481 347.449 37.037 L 436.29 139.208 L 98.167 139.208 C 87.793 139.208 79.317 148.939 79.317 161.019 C 79.317 173.098 87.793 182.828 98.167 182.828 L 436.146 182.828 L 347.303 284.999 C 339.999 293.554 340.144 307.313 347.449 315.868 C 354.902 324.256 366.738 324.256 374.19 315.701 L 494.593 176.453 C 496.201 174.44 497.515 172.259 498.538 169.575 C 499.561 166.89 500 164.038 500 161.186 C 500 155.483 498.101 150.113 494.593 145.92 L 374.19 6.671 C 367.029 -2.052 355.049 -2.221 347.596 6.167 Z" style="fill: rgb(171, 9, 6);"/>
</svg>